# xmcd
#
# Track frame offsets:
#	150
#	19969
#	35359
#	57648
#	80171
#	97204
#	112817
#	129105
#	153556
#	171044
#	188526
#	205877
#	231163
#	250835
#	273044
#	291117
#
# Disc length: 4102 seconds
#
# Revision: 0
# Processed by: cddbd v1.5.2PL0 Copyright (c) Steve Scherf et al.
# Submitted via: dBpowerAMP V4.0
#
DISCID=d9100410
DTITLE=blues guitar masters - blues guitar masters CD2
DYEAR=1900
DGENRE=blues
TTITLE0=gary moore - too tired
TTITLE1=albert collins - frosty
TTITLE2=albert collins - robert cray - j copeland - t bone schuffle 
TTITLE3=johny copeland - catch up with the blues
TTITLE4=johny guitar watson - gangster of love
TTITLE5=johnny winter - johnny guitar
TTITLE6=lonnie mack - double whammy
TTITLE7=steve ray vaughan - say what
TTITLE8=vaughan brothers - white boots
TTITLE9=zz top - la grange
TTITLE10=kenny wayne shepherd - one foot on the pass
TTITLE11=john lee hooker - santana - the healer
TTITLE12=roy rogers - vida's place
TTITLE13=ben harper - ground on down
TTITLE14=coco montoya - talkin woman blues
TTITLE15=tommy castro - this soul is mine
EXTD=blues masters
EXTT0=
EXTT1=
EXTT2=
EXTT3=
EXTT4=
EXTT5=
EXTT6=
EXTT7=
EXTT8=
EXTT9=
EXTT10=
EXTT11=
EXTT12=
EXTT13=
EXTT14=
EXTT15=
PLAYORDER=
